<svg width="215" height="172" viewBox="0 0 215 172" fill="none" xmlns="http://www.w3.org/2000/svg">
<path d="M34.4948 127.92V156H27.6548V139.16L21.3748 156H15.8548L9.53484 139.12V156H2.69484V127.92H10.7748L18.6548 147.36L26.4548 127.92H34.4948ZM38.0536 144.8C38.0536 142.507 38.4803 140.493 39.3336 138.76C40.2136 137.027 41.4003 135.693 42.8936 134.76C44.3869 133.827 46.0536 133.36 47.8936 133.36C49.4669 133.36 50.8403 133.68 52.0136 134.32C53.2136 134.96 54.1336 135.8 54.7736 136.84V133.68H61.6136V156H54.7736V152.84C54.1069 153.88 53.1736 154.72 51.9736 155.36C50.8003 156 49.4269 156.32 47.8536 156.32C46.0403 156.32 44.3869 155.853 42.8936 154.92C41.4003 153.96 40.2136 152.613 39.3336 150.88C38.4803 149.12 38.0536 147.093 38.0536 144.8ZM54.7736 144.84C54.7736 143.133 54.2936 141.787 53.3336 140.8C52.4003 139.813 51.2536 139.32 49.8936 139.32C48.5336 139.32 47.3736 139.813 46.4136 140.8C45.4803 141.76 45.0136 143.093 45.0136 144.8C45.0136 146.507 45.4803 147.867 46.4136 148.88C47.3736 149.867 48.5336 150.36 49.8936 150.36C51.2536 150.36 52.4003 149.867 53.3336 148.88C54.2936 147.893 54.7736 146.547 54.7736 144.84ZM73.402 137.4C74.202 136.173 75.202 135.213 76.402 134.52C77.602 133.8 78.9354 133.44 80.402 133.44V140.68H78.522C76.8154 140.68 75.5354 141.053 74.682 141.8C73.8287 142.52 73.402 143.8 73.402 145.64V156H66.562V133.68H73.402V137.4ZM97.3114 156L90.5114 146.64V156H83.6714V126.4H90.5114V142.76L97.2714 133.68H105.711L96.4314 144.88L105.791 156H97.3114ZM129.438 144.48C129.438 145.12 129.398 145.787 129.318 146.48H113.838C113.945 147.867 114.385 148.933 115.158 149.68C115.958 150.4 116.931 150.76 118.078 150.76C119.785 150.76 120.971 150.04 121.638 148.6H128.918C128.545 150.067 127.865 151.387 126.878 152.56C125.918 153.733 124.705 154.653 123.238 155.32C121.771 155.987 120.131 156.32 118.318 156.32C116.131 156.32 114.185 155.853 112.478 154.92C110.771 153.987 109.438 152.653 108.478 150.92C107.518 149.187 107.038 147.16 107.038 144.84C107.038 142.52 107.505 140.493 108.438 138.76C109.398 137.027 110.731 135.693 112.438 134.76C114.145 133.827 116.105 133.36 118.318 133.36C120.478 133.36 122.398 133.813 124.078 134.72C125.758 135.627 127.065 136.92 127.998 138.6C128.958 140.28 129.438 142.24 129.438 144.48ZM122.438 142.68C122.438 141.507 122.038 140.573 121.238 139.88C120.438 139.187 119.438 138.84 118.238 138.84C117.091 138.84 116.118 139.173 115.318 139.84C114.545 140.507 114.065 141.453 113.878 142.68H122.438ZM145.486 150.2V156H142.006C139.526 156 137.593 155.4 136.206 154.2C134.82 152.973 134.126 150.987 134.126 148.24V139.36H131.406V133.68H134.126V128.24H140.966V133.68H145.446V139.36H140.966V148.32C140.966 148.987 141.126 149.467 141.446 149.76C141.766 150.053 142.3 150.2 143.046 150.2H145.486Z" fill="white"/>
<path d="M34.4948 127.92V156H27.6548V139.16L21.3748 156H15.8548L9.53484 139.12V156H2.69484V127.92H10.7748L18.6548 147.36L26.4548 127.92H34.4948ZM38.0536 144.8C38.0536 142.507 38.4803 140.493 39.3336 138.76C40.2136 137.027 41.4003 135.693 42.8936 134.76C44.3869 133.827 46.0536 133.36 47.8936 133.36C49.4669 133.36 50.8403 133.68 52.0136 134.32C53.2136 134.96 54.1336 135.8 54.7736 136.84V133.68H61.6136V156H54.7736V152.84C54.1069 153.88 53.1736 154.72 51.9736 155.36C50.8003 156 49.4269 156.32 47.8536 156.32C46.0403 156.32 44.3869 155.853 42.8936 154.92C41.4003 153.96 40.2136 152.613 39.3336 150.88C38.4803 149.12 38.0536 147.093 38.0536 144.8ZM54.7736 144.84C54.7736 143.133 54.2936 141.787 53.3336 140.8C52.4003 139.813 51.2536 139.32 49.8936 139.32C48.5336 139.32 47.3736 139.813 46.4136 140.8C45.4803 141.76 45.0136 143.093 45.0136 144.8C45.0136 146.507 45.4803 147.867 46.4136 148.88C47.3736 149.867 48.5336 150.36 49.8936 150.36C51.2536 150.36 52.4003 149.867 53.3336 148.88C54.2936 147.893 54.7736 146.547 54.7736 144.84ZM73.402 137.4C74.202 136.173 75.202 135.213 76.402 134.52C77.602 133.8 78.9354 133.44 80.402 133.44V140.68H78.522C76.8154 140.68 75.5354 141.053 74.682 141.8C73.8287 142.52 73.402 143.8 73.402 145.64V156H66.562V133.68H73.402V137.4ZM97.3114 156L90.5114 146.64V156H83.6714V126.4H90.5114V142.76L97.2714 133.68H105.711L96.4314 144.88L105.791 156H97.3114ZM129.438 144.48C129.438 145.12 129.398 145.787 129.318 146.48H113.838C113.945 147.867 114.385 148.933 115.158 149.68C115.958 150.4 116.931 150.76 118.078 150.76C119.785 150.76 120.971 150.04 121.638 148.6H128.918C128.545 150.067 127.865 151.387 126.878 152.56C125.918 153.733 124.705 154.653 123.238 155.32C121.771 155.987 120.131 156.32 118.318 156.32C116.131 156.32 114.185 155.853 112.478 154.92C110.771 153.987 109.438 152.653 108.478 150.92C107.518 149.187 107.038 147.16 107.038 144.84C107.038 142.52 107.505 140.493 108.438 138.76C109.398 137.027 110.731 135.693 112.438 134.76C114.145 133.827 116.105 133.36 118.318 133.36C120.478 133.36 122.398 133.813 124.078 134.72C125.758 135.627 127.065 136.92 127.998 138.6C128.958 140.28 129.438 142.24 129.438 144.48ZM122.438 142.68C122.438 141.507 122.038 140.573 121.238 139.88C120.438 139.187 119.438 138.84 118.238 138.84C117.091 138.84 116.118 139.173 115.318 139.84C114.545 140.507 114.065 141.453 113.878 142.68H122.438ZM145.486 150.2V156H142.006C139.526 156 137.593 155.4 136.206 154.2C134.82 152.973 134.126 150.987 134.126 148.24V139.36H131.406V133.68H134.126V128.24H140.966V133.68H145.446V139.36H140.966V148.32C140.966 148.987 141.126 149.467 141.446 149.76C141.766 150.053 142.3 150.2 143.046 150.2H145.486Z" fill="#EE3F5D"/>
<path d="M34.4948 127.92V156H27.6548V139.16L21.3748 156H15.8548L9.53484 139.12V156H2.69484V127.92H10.7748L18.6548 147.36L26.4548 127.92H34.4948ZM38.0536 144.8C38.0536 142.507 38.4803 140.493 39.3336 138.76C40.2136 137.027 41.4003 135.693 42.8936 134.76C44.3869 133.827 46.0536 133.36 47.8936 133.36C49.4669 133.36 50.8403 133.68 52.0136 134.32C53.2136 134.96 54.1336 135.8 54.7736 136.84V133.68H61.6136V156H54.7736V152.84C54.1069 153.88 53.1736 154.72 51.9736 155.36C50.8003 156 49.4269 156.32 47.8536 156.32C46.0403 156.32 44.3869 155.853 42.8936 154.92C41.4003 153.96 40.2136 152.613 39.3336 150.88C38.4803 149.12 38.0536 147.093 38.0536 144.8ZM54.7736 144.84C54.7736 143.133 54.2936 141.787 53.3336 140.8C52.4003 139.813 51.2536 139.32 49.8936 139.32C48.5336 139.32 47.3736 139.813 46.4136 140.8C45.4803 141.76 45.0136 143.093 45.0136 144.8C45.0136 146.507 45.4803 147.867 46.4136 148.88C47.3736 149.867 48.5336 150.36 49.8936 150.36C51.2536 150.36 52.4003 149.867 53.3336 148.88C54.2936 147.893 54.7736 146.547 54.7736 144.84ZM73.402 137.4C74.202 136.173 75.202 135.213 76.402 134.52C77.602 133.8 78.9354 133.44 80.402 133.44V140.68H78.522C76.8154 140.68 75.5354 141.053 74.682 141.8C73.8287 142.52 73.402 143.8 73.402 145.64V156H66.562V133.68H73.402V137.4ZM97.3114 156L90.5114 146.64V156H83.6714V126.4H90.5114V142.76L97.2714 133.68H105.711L96.4314 144.88L105.791 156H97.3114ZM129.438 144.48C129.438 145.12 129.398 145.787 129.318 146.48H113.838C113.945 147.867 114.385 148.933 115.158 149.68C115.958 150.4 116.931 150.76 118.078 150.76C119.785 150.76 120.971 150.04 121.638 148.6H128.918C128.545 150.067 127.865 151.387 126.878 152.56C125.918 153.733 124.705 154.653 123.238 155.32C121.771 155.987 120.131 156.32 118.318 156.32C116.131 156.32 114.185 155.853 112.478 154.92C110.771 153.987 109.438 152.653 108.478 150.92C107.518 149.187 107.038 147.16 107.038 144.84C107.038 142.52 107.505 140.493 108.438 138.76C109.398 137.027 110.731 135.693 112.438 134.76C114.145 133.827 116.105 133.36 118.318 133.36C120.478 133.36 122.398 133.813 124.078 134.72C125.758 135.627 127.065 136.92 127.998 138.6C128.958 140.28 129.438 142.24 129.438 144.48ZM122.438 142.68C122.438 141.507 122.038 140.573 121.238 139.88C120.438 139.187 119.438 138.84 118.238 138.84C117.091 138.84 116.118 139.173 115.318 139.84C114.545 140.507 114.065 141.453 113.878 142.68H122.438ZM145.486 150.2V156H142.006C139.526 156 137.593 155.4 136.206 154.2C134.82 152.973 134.126 150.987 134.126 148.24V139.36H131.406V133.68H134.126V128.24H140.966V133.68H145.446V139.36H140.966V148.32C140.966 148.987 141.126 149.467 141.446 149.76C141.766 150.053 142.3 150.2 143.046 150.2H145.486Z" fill="#0F172A"/>
<path d="M160.496 139.36H156.816V156H149.976V139.36H147.496V133.68H149.976V133.04C149.976 130.293 150.763 128.213 152.336 126.8C153.91 125.36 156.216 124.64 159.256 124.64C159.763 124.64 160.136 124.653 160.376 124.68V130.48C159.07 130.4 158.15 130.587 157.616 131.04C157.083 131.493 156.816 132.307 156.816 133.48V133.68H160.496V139.36ZM167.15 131.36C165.95 131.36 164.964 131.013 164.19 130.32C163.444 129.6 163.07 128.72 163.07 127.68C163.07 126.613 163.444 125.733 164.19 125.04C164.964 124.32 165.95 123.96 167.15 123.96C168.324 123.96 169.284 124.32 170.03 125.04C170.804 125.733 171.19 126.613 171.19 127.68C171.19 128.72 170.804 129.6 170.03 130.32C169.284 131.013 168.324 131.36 167.15 131.36ZM170.55 133.68V156H163.71V133.68H170.55ZM196.547 144.48C196.547 145.12 196.507 145.787 196.427 146.48H180.947C181.054 147.867 181.494 148.933 182.267 149.68C183.067 150.4 184.041 150.76 185.187 150.76C186.894 150.76 188.081 150.04 188.747 148.6H196.027C195.654 150.067 194.974 151.387 193.987 152.56C193.027 153.733 191.814 154.653 190.347 155.32C188.881 155.987 187.241 156.32 185.427 156.32C183.241 156.32 181.294 155.853 179.587 154.92C177.881 153.987 176.547 152.653 175.587 150.92C174.627 149.187 174.147 147.16 174.147 144.84C174.147 142.52 174.614 140.493 175.547 138.76C176.507 137.027 177.841 135.693 179.547 134.76C181.254 133.827 183.214 133.36 185.427 133.36C187.587 133.36 189.507 133.813 191.187 134.72C192.867 135.627 194.174 136.92 195.107 138.6C196.067 140.28 196.547 142.24 196.547 144.48ZM189.547 142.68C189.547 141.507 189.147 140.573 188.347 139.88C187.547 139.187 186.547 138.84 185.347 138.84C184.201 138.84 183.227 139.173 182.427 139.84C181.654 140.507 181.174 141.453 180.987 142.68H189.547ZM206.996 137.4C207.796 136.173 208.796 135.213 209.996 134.52C211.196 133.8 212.529 133.44 213.996 133.44V140.68H212.116C210.409 140.68 209.129 141.053 208.276 141.8C207.422 142.52 206.996 143.8 206.996 145.64V156H200.156V133.68H206.996V137.4Z" fill="#F97315"/>
<mask id="mask0_121_26" style="mask-type:luminance" maskUnits="userSpaceOnUse" x="42" y="0" width="132" height="105">
<path d="M174 0H42V105H174V0Z" fill="white"/>
</mask>
<g mask="url(#mask0_121_26)">
<path d="M50.8657 0H98.1493V105H50.8657C48.5143 105 46.2593 103.894 44.5967 101.924C42.9341 99.955 42 97.2847 42 94.5V10.5C42 7.71523 42.9341 5.04451 44.5967 3.07538C46.2593 1.10624 48.5143 0 50.8657 0Z" fill="#FFA918"/>
<path d="M108 0H155.284C157.635 0 159.89 1.10624 161.553 3.07538C163.215 5.04451 164.149 7.71523 164.149 10.5V94.5C164.149 97.2847 163.215 99.955 161.553 101.924C159.89 103.894 157.635 105 155.284 105H108V0Z" fill="#F97315"/>
</g>
</svg>
