<svg width="302" height="61" viewBox="0 0 302 61" fill="none" xmlns="http://www.w3.org/2000/svg">
<g clip-path="url(#clip0_89_77)">
<mask id="mask0_89_77" style="mask-type:luminance" maskUnits="userSpaceOnUse" x="0" y="0" width="71" height="61">
<path d="M71 0H0V61H71V0Z" fill="white"/>
</mask>
<g mask="url(#mask0_89_77)">
<path d="M4.76866 0H30.2015V61H4.76866C3.50393 61 2.29101 60.3572 1.39671 59.2132C0.50241 58.0691 0 56.5178 0 54.9V6.1C0 4.48218 0.50241 2.93062 1.39671 1.78665C2.29101 0.642675 3.50393 0 4.76866 0Z" fill="#FFA918"/>
<path d="M40.7985 0H66.2314C67.4961 0 68.7089 0.642675 69.6033 1.78665C70.4977 2.93062 71 4.48218 71 6.1V54.9C71 56.5178 70.4977 58.0691 69.6033 59.2132C68.7089 60.3572 67.4961 61 66.2314 61H40.7985V0Z" fill="#F97315"/>
</g>
<path d="M122.495 16.92V45H115.655V28.16L109.375 45H103.855L97.5348 28.12V45H90.6948V16.92H98.7748L106.655 36.36L114.455 16.92H122.495ZM126.054 33.8C126.054 31.5067 126.48 29.4933 127.334 27.76C128.214 26.0267 129.4 24.6933 130.894 23.76C132.387 22.8267 134.054 22.36 135.894 22.36C137.467 22.36 138.84 22.68 140.014 23.32C141.214 23.96 142.134 24.8 142.774 25.84V22.68H149.614V45H142.774V41.84C142.107 42.88 141.174 43.72 139.974 44.36C138.8 45 137.427 45.32 135.854 45.32C134.04 45.32 132.387 44.8533 130.894 43.92C129.4 42.96 128.214 41.6133 127.334 39.88C126.48 38.12 126.054 36.0933 126.054 33.8ZM142.774 33.84C142.774 32.1333 142.294 30.7867 141.334 29.8C140.4 28.8133 139.254 28.32 137.894 28.32C136.534 28.32 135.374 28.8133 134.414 29.8C133.48 30.76 133.014 32.0933 133.014 33.8C133.014 35.5067 133.48 36.8667 134.414 37.88C135.374 38.8667 136.534 39.36 137.894 39.36C139.254 39.36 140.4 38.8667 141.334 37.88C142.294 36.8933 142.774 35.5467 142.774 33.84ZM161.402 26.4C162.202 25.1733 163.202 24.2133 164.402 23.52C165.602 22.8 166.935 22.44 168.402 22.44V29.68H166.522C164.815 29.68 163.535 30.0533 162.682 30.8C161.829 31.52 161.402 32.8 161.402 34.64V45H154.562V22.68H161.402V26.4ZM185.311 45L178.511 35.64V45H171.671V15.4H178.511V31.76L185.271 22.68H193.711L184.431 33.88L193.791 45H185.311ZM217.438 33.48C217.438 34.12 217.398 34.7867 217.318 35.48H201.838C201.945 36.8667 202.385 37.9333 203.158 38.68C203.958 39.4 204.931 39.76 206.078 39.76C207.785 39.76 208.971 39.04 209.638 37.6H216.918C216.545 39.0667 215.865 40.3867 214.878 41.56C213.918 42.7333 212.705 43.6533 211.238 44.32C209.771 44.9867 208.131 45.32 206.318 45.32C204.131 45.32 202.185 44.8533 200.478 43.92C198.771 42.9867 197.438 41.6533 196.478 39.92C195.518 38.1867 195.038 36.16 195.038 33.84C195.038 31.52 195.505 29.4933 196.438 27.76C197.398 26.0267 198.731 24.6933 200.438 23.76C202.145 22.8267 204.105 22.36 206.318 22.36C208.478 22.36 210.398 22.8133 212.078 23.72C213.758 24.6267 215.065 25.92 215.998 27.6C216.958 29.28 217.438 31.24 217.438 33.48ZM210.438 31.68C210.438 30.5067 210.038 29.5733 209.238 28.88C208.438 28.1867 207.438 27.84 206.238 27.84C205.091 27.84 204.118 28.1733 203.318 28.84C202.545 29.5067 202.065 30.4533 201.878 31.68H210.438ZM233.486 39.2V45H230.006C227.526 45 225.593 44.4 224.206 43.2C222.82 41.9733 222.126 39.9867 222.126 37.24V28.36H219.406V22.68H222.126V17.24H228.966V22.68H233.446V28.36H228.966V37.32C228.966 37.9867 229.126 38.4667 229.446 38.76C229.766 39.0533 230.3 39.2 231.046 39.2H233.486Z" fill="#0F172A"/>
<path d="M248.496 28.36H244.816V45H237.976V28.36H235.496V22.68H237.976V22.04C237.976 19.2933 238.763 17.2133 240.336 15.8C241.91 14.36 244.216 13.64 247.256 13.64C247.763 13.64 248.136 13.6533 248.376 13.68V19.48C247.07 19.4 246.15 19.5867 245.616 20.04C245.083 20.4933 244.816 21.3067 244.816 22.48V22.68H248.496V28.36ZM255.15 20.36C253.95 20.36 252.964 20.0133 252.19 19.32C251.444 18.6 251.07 17.72 251.07 16.68C251.07 15.6133 251.444 14.7333 252.19 14.04C252.964 13.32 253.95 12.96 255.15 12.96C256.324 12.96 257.284 13.32 258.03 14.04C258.804 14.7333 259.19 15.6133 259.19 16.68C259.19 17.72 258.804 18.6 258.03 19.32C257.284 20.0133 256.324 20.36 255.15 20.36ZM258.55 22.68V45H251.71V22.68H258.55ZM284.547 33.48C284.547 34.12 284.507 34.7867 284.427 35.48H268.947C269.054 36.8667 269.494 37.9333 270.267 38.68C271.067 39.4 272.041 39.76 273.187 39.76C274.894 39.76 276.081 39.04 276.747 37.6H284.027C283.654 39.0667 282.974 40.3867 281.987 41.56C281.027 42.7333 279.814 43.6533 278.347 44.32C276.881 44.9867 275.241 45.32 273.427 45.32C271.241 45.32 269.294 44.8533 267.587 43.92C265.881 42.9867 264.547 41.6533 263.587 39.92C262.627 38.1867 262.147 36.16 262.147 33.84C262.147 31.52 262.614 29.4933 263.547 27.76C264.507 26.0267 265.841 24.6933 267.547 23.76C269.254 22.8267 271.214 22.36 273.427 22.36C275.587 22.36 277.507 22.8133 279.187 23.72C280.867 24.6267 282.174 25.92 283.107 27.6C284.067 29.28 284.547 31.24 284.547 33.48ZM277.547 31.68C277.547 30.5067 277.147 29.5733 276.347 28.88C275.547 28.1867 274.547 27.84 273.347 27.84C272.201 27.84 271.227 28.1733 270.427 28.84C269.654 29.5067 269.174 30.4533 268.987 31.68H277.547ZM294.996 26.4C295.796 25.1733 296.796 24.2133 297.996 23.52C299.196 22.8 300.529 22.44 301.996 22.44V29.68H300.116C298.409 29.68 297.129 30.0533 296.276 30.8C295.422 31.52 294.996 32.8 294.996 34.64V45H288.156V22.68H294.996V26.4Z" fill="#F97315"/>
</g>
<defs>
<clipPath id="clip0_89_77">
<rect width="302" height="61" fill="white"/>
</clipPath>
</defs>
</svg>
