<svg width="360" height="171" viewBox="0 0 360 171" fill="none" xmlns="http://www.w3.org/2000/svg">
<path d="M34.3386 126.92V155H27.4986V138.16L21.2186 155H15.6986L9.37859 138.12V155H2.53859V126.92H10.6186L18.4986 146.36L26.2986 126.92H34.3386ZM37.8973 143.8C37.8973 141.507 38.324 139.493 39.1773 137.76C40.0573 136.027 41.244 134.693 42.7373 133.76C44.2307 132.827 45.8973 132.36 47.7373 132.36C49.3107 132.36 50.684 132.68 51.8573 133.32C53.0573 133.96 53.9773 134.8 54.6173 135.84V132.68H61.4573V155H54.6173V151.84C53.9507 152.88 53.0173 153.72 51.8173 154.36C50.644 155 49.2707 155.32 47.6973 155.32C45.884 155.32 44.2307 154.853 42.7373 153.92C41.244 152.96 40.0573 151.613 39.1773 149.88C38.324 148.12 37.8973 146.093 37.8973 143.8ZM54.6173 143.84C54.6173 142.133 54.1373 140.787 53.1773 139.8C52.244 138.813 51.0973 138.32 49.7373 138.32C48.3773 138.32 47.2173 138.813 46.2573 139.8C45.324 140.76 44.8573 142.093 44.8573 143.8C44.8573 145.507 45.324 146.867 46.2573 147.88C47.2173 148.867 48.3773 149.36 49.7373 149.36C51.0973 149.36 52.244 148.867 53.1773 147.88C54.1373 146.893 54.6173 145.547 54.6173 143.84ZM73.2458 136.4C74.0458 135.173 75.0458 134.213 76.2458 133.52C77.4458 132.8 78.7791 132.44 80.2458 132.44V139.68H78.3658C76.6591 139.68 75.3791 140.053 74.5258 140.8C73.6724 141.52 73.2458 142.8 73.2458 144.64V155H66.4058V132.68H73.2458V136.4ZM97.1552 155L90.3552 145.64V155H83.5152V125.4H90.3552V141.76L97.1152 132.68H105.555L96.2752 143.88L105.635 155H97.1552ZM129.282 143.48C129.282 144.12 129.242 144.787 129.162 145.48H113.682C113.788 146.867 114.228 147.933 115.002 148.68C115.802 149.4 116.775 149.76 117.922 149.76C119.628 149.76 120.815 149.04 121.482 147.6H128.762C128.388 149.067 127.708 150.387 126.722 151.56C125.762 152.733 124.548 153.653 123.082 154.32C121.615 154.987 119.975 155.32 118.162 155.32C115.975 155.32 114.028 154.853 112.322 153.92C110.615 152.987 109.282 151.653 108.322 149.92C107.362 148.187 106.882 146.16 106.882 143.84C106.882 141.52 107.348 139.493 108.282 137.76C109.242 136.027 110.575 134.693 112.282 133.76C113.988 132.827 115.948 132.36 118.162 132.36C120.322 132.36 122.242 132.813 123.922 133.72C125.602 134.627 126.908 135.92 127.842 137.6C128.802 139.28 129.282 141.24 129.282 143.48ZM122.282 141.68C122.282 140.507 121.882 139.573 121.082 138.88C120.282 138.187 119.282 137.84 118.082 137.84C116.935 137.84 115.962 138.173 115.162 138.84C114.388 139.507 113.908 140.453 113.722 141.68H122.282ZM145.33 149.2V155H141.85C139.37 155 137.437 154.4 136.05 153.2C134.663 151.973 133.97 149.987 133.97 147.24V138.36H131.25V132.68H133.97V127.24H140.81V132.68H145.29V138.36H140.81V147.32C140.81 147.987 140.97 148.467 141.29 148.76C141.61 149.053 142.143 149.2 142.89 149.2H145.33Z" fill="white"/>
<path d="M34.3386 126.92V155H27.4986V138.16L21.2186 155H15.6986L9.37859 138.12V155H2.53859V126.92H10.6186L18.4986 146.36L26.2986 126.92H34.3386ZM37.8973 143.8C37.8973 141.507 38.324 139.493 39.1773 137.76C40.0573 136.027 41.244 134.693 42.7373 133.76C44.2307 132.827 45.8973 132.36 47.7373 132.36C49.3107 132.36 50.684 132.68 51.8573 133.32C53.0573 133.96 53.9773 134.8 54.6173 135.84V132.68H61.4573V155H54.6173V151.84C53.9507 152.88 53.0173 153.72 51.8173 154.36C50.644 155 49.2707 155.32 47.6973 155.32C45.884 155.32 44.2307 154.853 42.7373 153.92C41.244 152.96 40.0573 151.613 39.1773 149.88C38.324 148.12 37.8973 146.093 37.8973 143.8ZM54.6173 143.84C54.6173 142.133 54.1373 140.787 53.1773 139.8C52.244 138.813 51.0973 138.32 49.7373 138.32C48.3773 138.32 47.2173 138.813 46.2573 139.8C45.324 140.76 44.8573 142.093 44.8573 143.8C44.8573 145.507 45.324 146.867 46.2573 147.88C47.2173 148.867 48.3773 149.36 49.7373 149.36C51.0973 149.36 52.244 148.867 53.1773 147.88C54.1373 146.893 54.6173 145.547 54.6173 143.84ZM73.2458 136.4C74.0458 135.173 75.0458 134.213 76.2458 133.52C77.4458 132.8 78.7791 132.44 80.2458 132.44V139.68H78.3658C76.6591 139.68 75.3791 140.053 74.5258 140.8C73.6724 141.52 73.2458 142.8 73.2458 144.64V155H66.4058V132.68H73.2458V136.4ZM97.1552 155L90.3552 145.64V155H83.5152V125.4H90.3552V141.76L97.1152 132.68H105.555L96.2752 143.88L105.635 155H97.1552ZM129.282 143.48C129.282 144.12 129.242 144.787 129.162 145.48H113.682C113.788 146.867 114.228 147.933 115.002 148.68C115.802 149.4 116.775 149.76 117.922 149.76C119.628 149.76 120.815 149.04 121.482 147.6H128.762C128.388 149.067 127.708 150.387 126.722 151.56C125.762 152.733 124.548 153.653 123.082 154.32C121.615 154.987 119.975 155.32 118.162 155.32C115.975 155.32 114.028 154.853 112.322 153.92C110.615 152.987 109.282 151.653 108.322 149.92C107.362 148.187 106.882 146.16 106.882 143.84C106.882 141.52 107.348 139.493 108.282 137.76C109.242 136.027 110.575 134.693 112.282 133.76C113.988 132.827 115.948 132.36 118.162 132.36C120.322 132.36 122.242 132.813 123.922 133.72C125.602 134.627 126.908 135.92 127.842 137.6C128.802 139.28 129.282 141.24 129.282 143.48ZM122.282 141.68C122.282 140.507 121.882 139.573 121.082 138.88C120.282 138.187 119.282 137.84 118.082 137.84C116.935 137.84 115.962 138.173 115.162 138.84C114.388 139.507 113.908 140.453 113.722 141.68H122.282ZM145.33 149.2V155H141.85C139.37 155 137.437 154.4 136.05 153.2C134.663 151.973 133.97 149.987 133.97 147.24V138.36H131.25V132.68H133.97V127.24H140.81V132.68H145.29V138.36H140.81V147.32C140.81 147.987 140.97 148.467 141.29 148.76C141.61 149.053 142.143 149.2 142.89 149.2H145.33Z" fill="#EE3F5D"/>
<path d="M34.3386 126.92V155H27.4986V138.16L21.2186 155H15.6986L9.37859 138.12V155H2.53859V126.92H10.6186L18.4986 146.36L26.2986 126.92H34.3386ZM37.8973 143.8C37.8973 141.507 38.324 139.493 39.1773 137.76C40.0573 136.027 41.244 134.693 42.7373 133.76C44.2307 132.827 45.8973 132.36 47.7373 132.36C49.3107 132.36 50.684 132.68 51.8573 133.32C53.0573 133.96 53.9773 134.8 54.6173 135.84V132.68H61.4573V155H54.6173V151.84C53.9507 152.88 53.0173 153.72 51.8173 154.36C50.644 155 49.2707 155.32 47.6973 155.32C45.884 155.32 44.2307 154.853 42.7373 153.92C41.244 152.96 40.0573 151.613 39.1773 149.88C38.324 148.12 37.8973 146.093 37.8973 143.8ZM54.6173 143.84C54.6173 142.133 54.1373 140.787 53.1773 139.8C52.244 138.813 51.0973 138.32 49.7373 138.32C48.3773 138.32 47.2173 138.813 46.2573 139.8C45.324 140.76 44.8573 142.093 44.8573 143.8C44.8573 145.507 45.324 146.867 46.2573 147.88C47.2173 148.867 48.3773 149.36 49.7373 149.36C51.0973 149.36 52.244 148.867 53.1773 147.88C54.1373 146.893 54.6173 145.547 54.6173 143.84ZM73.2458 136.4C74.0458 135.173 75.0458 134.213 76.2458 133.52C77.4458 132.8 78.7791 132.44 80.2458 132.44V139.68H78.3658C76.6591 139.68 75.3791 140.053 74.5258 140.8C73.6724 141.52 73.2458 142.8 73.2458 144.64V155H66.4058V132.68H73.2458V136.4ZM97.1552 155L90.3552 145.64V155H83.5152V125.4H90.3552V141.76L97.1152 132.68H105.555L96.2752 143.88L105.635 155H97.1552ZM129.282 143.48C129.282 144.12 129.242 144.787 129.162 145.48H113.682C113.788 146.867 114.228 147.933 115.002 148.68C115.802 149.4 116.775 149.76 117.922 149.76C119.628 149.76 120.815 149.04 121.482 147.6H128.762C128.388 149.067 127.708 150.387 126.722 151.56C125.762 152.733 124.548 153.653 123.082 154.32C121.615 154.987 119.975 155.32 118.162 155.32C115.975 155.32 114.028 154.853 112.322 153.92C110.615 152.987 109.282 151.653 108.322 149.92C107.362 148.187 106.882 146.16 106.882 143.84C106.882 141.52 107.348 139.493 108.282 137.76C109.242 136.027 110.575 134.693 112.282 133.76C113.988 132.827 115.948 132.36 118.162 132.36C120.322 132.36 122.242 132.813 123.922 133.72C125.602 134.627 126.908 135.92 127.842 137.6C128.802 139.28 129.282 141.24 129.282 143.48ZM122.282 141.68C122.282 140.507 121.882 139.573 121.082 138.88C120.282 138.187 119.282 137.84 118.082 137.84C116.935 137.84 115.962 138.173 115.162 138.84C114.388 139.507 113.908 140.453 113.722 141.68H122.282ZM145.33 149.2V155H141.85C139.37 155 137.437 154.4 136.05 153.2C134.663 151.973 133.97 149.987 133.97 147.24V138.36H131.25V132.68H133.97V127.24H140.81V132.68H145.29V138.36H140.81V147.32C140.81 147.987 140.97 148.467 141.29 148.76C141.61 149.053 142.143 149.2 142.89 149.2H145.33Z" fill="#0F172A"/>
<path d="M160.34 138.36H156.66V155H149.82V138.36H147.34V132.68H149.82V132.04C149.82 129.293 150.607 127.213 152.18 125.8C153.753 124.36 156.06 123.64 159.1 123.64C159.607 123.64 159.98 123.653 160.22 123.68V129.48C158.913 129.4 157.993 129.587 157.46 130.04C156.927 130.493 156.66 131.307 156.66 132.48V132.68H160.34V138.36ZM166.994 130.36C165.794 130.36 164.808 130.013 164.034 129.32C163.288 128.6 162.914 127.72 162.914 126.68C162.914 125.613 163.288 124.733 164.034 124.04C164.808 123.32 165.794 122.96 166.994 122.96C168.168 122.96 169.128 123.32 169.874 124.04C170.648 124.733 171.034 125.613 171.034 126.68C171.034 127.72 170.648 128.6 169.874 129.32C169.128 130.013 168.168 130.36 166.994 130.36ZM170.394 132.68V155H163.554V132.68H170.394ZM196.391 143.48C196.391 144.12 196.351 144.787 196.271 145.48H180.791C180.898 146.867 181.338 147.933 182.111 148.68C182.911 149.4 183.884 149.76 185.031 149.76C186.738 149.76 187.924 149.04 188.591 147.6H195.871C195.498 149.067 194.818 150.387 193.831 151.56C192.871 152.733 191.658 153.653 190.191 154.32C188.724 154.987 187.084 155.32 185.271 155.32C183.084 155.32 181.138 154.853 179.431 153.92C177.724 152.987 176.391 151.653 175.431 149.92C174.471 148.187 173.991 146.16 173.991 143.84C173.991 141.52 174.458 139.493 175.391 137.76C176.351 136.027 177.684 134.693 179.391 133.76C181.098 132.827 183.058 132.36 185.271 132.36C187.431 132.36 189.351 132.813 191.031 133.72C192.711 134.627 194.018 135.92 194.951 137.6C195.911 139.28 196.391 141.24 196.391 143.48ZM189.391 141.68C189.391 140.507 188.991 139.573 188.191 138.88C187.391 138.187 186.391 137.84 185.191 137.84C184.044 137.84 183.071 138.173 182.271 138.84C181.498 139.507 181.018 140.453 180.831 141.68H189.391ZM206.84 136.4C207.64 135.173 208.64 134.213 209.84 133.52C211.04 132.8 212.373 132.44 213.84 132.44V139.68H211.96C210.253 139.68 208.973 140.053 208.12 140.8C207.266 141.52 206.84 142.8 206.84 144.64V155H200V132.68H206.84V136.4Z" fill="#F97315"/>
<path d="M232.425 132.4V138.08H241.585V143.36H232.425V149.52H242.785V155H225.585V126.92H242.785V132.4H232.425ZM257.266 148.6L262.106 132.68H269.386L261.466 155H253.026L245.106 132.68H252.426L257.266 148.6ZM293.305 143.48C293.305 144.12 293.265 144.787 293.185 145.48H277.705C277.812 146.867 278.252 147.933 279.025 148.68C279.825 149.4 280.798 149.76 281.945 149.76C283.652 149.76 284.838 149.04 285.505 147.6H292.785C292.412 149.067 291.732 150.387 290.745 151.56C289.785 152.733 288.572 153.653 287.105 154.32C285.638 154.987 283.998 155.32 282.185 155.32C279.998 155.32 278.052 154.853 276.345 153.92C274.638 152.987 273.305 151.653 272.345 149.92C271.385 148.187 270.905 146.16 270.905 143.84C270.905 141.52 271.372 139.493 272.305 137.76C273.265 136.027 274.598 134.693 276.305 133.76C278.012 132.827 279.972 132.36 282.185 132.36C284.345 132.36 286.265 132.813 287.945 133.72C289.625 134.627 290.932 135.92 291.865 137.6C292.825 139.28 293.305 141.24 293.305 143.48ZM286.305 141.68C286.305 140.507 285.905 139.573 285.105 138.88C284.305 138.187 283.305 137.84 282.105 137.84C280.958 137.84 279.985 138.173 279.185 138.84C278.412 139.507 277.932 140.453 277.745 141.68H286.305ZM310.514 132.44C313.127 132.44 315.207 133.293 316.754 135C318.327 136.68 319.114 139 319.114 141.96V155H312.314V142.88C312.314 141.387 311.927 140.227 311.154 139.4C310.38 138.573 309.34 138.16 308.034 138.16C306.727 138.16 305.687 138.573 304.914 139.4C304.14 140.227 303.754 141.387 303.754 142.88V155H296.914V132.68H303.754V135.64C304.447 134.653 305.38 133.88 306.554 133.32C307.727 132.733 309.047 132.44 310.514 132.44ZM336.307 149.2V155H332.827C330.347 155 328.413 154.4 327.027 153.2C325.64 151.973 324.947 149.987 324.947 147.24V138.36H322.227V132.68H324.947V127.24H331.787V132.68H336.267V138.36H331.787V147.32C331.787 147.987 331.947 148.467 332.267 148.76C332.587 149.053 333.12 149.2 333.867 149.2H336.307ZM349.197 155.32C347.25 155.32 345.517 154.987 343.997 154.32C342.477 153.653 341.277 152.747 340.397 151.6C339.517 150.427 339.023 149.12 338.917 147.68H345.677C345.757 148.453 346.117 149.08 346.757 149.56C347.397 150.04 348.183 150.28 349.117 150.28C349.97 150.28 350.623 150.12 351.077 149.8C351.557 149.453 351.797 149.013 351.797 148.48C351.797 147.84 351.463 147.373 350.797 147.08C350.13 146.76 349.05 146.413 347.557 146.04C345.957 145.667 344.623 145.28 343.557 144.88C342.49 144.453 341.57 143.8 340.797 142.92C340.023 142.013 339.637 140.8 339.637 139.28C339.637 138 339.983 136.84 340.677 135.8C341.397 134.733 342.437 133.893 343.797 133.28C345.183 132.667 346.823 132.36 348.717 132.36C351.517 132.36 353.717 133.053 355.317 134.44C356.943 135.827 357.877 137.667 358.117 139.96H351.797C351.69 139.187 351.343 138.573 350.757 138.12C350.197 137.667 349.45 137.44 348.517 137.44C347.717 137.44 347.103 137.6 346.677 137.92C346.25 138.213 346.037 138.627 346.037 139.16C346.037 139.8 346.37 140.28 347.037 140.6C347.73 140.92 348.797 141.24 350.237 141.56C351.89 141.987 353.237 142.413 354.277 142.84C355.317 143.24 356.223 143.907 356.997 144.84C357.797 145.747 358.21 146.973 358.237 148.52C358.237 149.827 357.863 151 357.117 152.04C356.397 153.053 355.343 153.853 353.957 154.44C352.597 155.027 351.01 155.32 349.197 155.32Z" fill="#F97315"/>
<path d="M232.425 132.4V138.08H241.585V143.36H232.425V149.52H242.785V155H225.585V126.92H242.785V132.4H232.425ZM257.266 148.6L262.106 132.68H269.386L261.466 155H253.026L245.106 132.68H252.426L257.266 148.6ZM293.305 143.48C293.305 144.12 293.265 144.787 293.185 145.48H277.705C277.812 146.867 278.252 147.933 279.025 148.68C279.825 149.4 280.798 149.76 281.945 149.76C283.652 149.76 284.838 149.04 285.505 147.6H292.785C292.412 149.067 291.732 150.387 290.745 151.56C289.785 152.733 288.572 153.653 287.105 154.32C285.638 154.987 283.998 155.32 282.185 155.32C279.998 155.32 278.052 154.853 276.345 153.92C274.638 152.987 273.305 151.653 272.345 149.92C271.385 148.187 270.905 146.16 270.905 143.84C270.905 141.52 271.372 139.493 272.305 137.76C273.265 136.027 274.598 134.693 276.305 133.76C278.012 132.827 279.972 132.36 282.185 132.36C284.345 132.36 286.265 132.813 287.945 133.72C289.625 134.627 290.932 135.92 291.865 137.6C292.825 139.28 293.305 141.24 293.305 143.48ZM286.305 141.68C286.305 140.507 285.905 139.573 285.105 138.88C284.305 138.187 283.305 137.84 282.105 137.84C280.958 137.84 279.985 138.173 279.185 138.84C278.412 139.507 277.932 140.453 277.745 141.68H286.305ZM310.514 132.44C313.127 132.44 315.207 133.293 316.754 135C318.327 136.68 319.114 139 319.114 141.96V155H312.314V142.88C312.314 141.387 311.927 140.227 311.154 139.4C310.38 138.573 309.34 138.16 308.034 138.16C306.727 138.16 305.687 138.573 304.914 139.4C304.14 140.227 303.754 141.387 303.754 142.88V155H296.914V132.68H303.754V135.64C304.447 134.653 305.38 133.88 306.554 133.32C307.727 132.733 309.047 132.44 310.514 132.44ZM336.307 149.2V155H332.827C330.347 155 328.413 154.4 327.027 153.2C325.64 151.973 324.947 149.987 324.947 147.24V138.36H322.227V132.68H324.947V127.24H331.787V132.68H336.267V138.36H331.787V147.32C331.787 147.987 331.947 148.467 332.267 148.76C332.587 149.053 333.12 149.2 333.867 149.2H336.307ZM349.197 155.32C347.25 155.32 345.517 154.987 343.997 154.32C342.477 153.653 341.277 152.747 340.397 151.6C339.517 150.427 339.023 149.12 338.917 147.68H345.677C345.757 148.453 346.117 149.08 346.757 149.56C347.397 150.04 348.183 150.28 349.117 150.28C349.97 150.28 350.623 150.12 351.077 149.8C351.557 149.453 351.797 149.013 351.797 148.48C351.797 147.84 351.463 147.373 350.797 147.08C350.13 146.76 349.05 146.413 347.557 146.04C345.957 145.667 344.623 145.28 343.557 144.88C342.49 144.453 341.57 143.8 340.797 142.92C340.023 142.013 339.637 140.8 339.637 139.28C339.637 138 339.983 136.84 340.677 135.8C341.397 134.733 342.437 133.893 343.797 133.28C345.183 132.667 346.823 132.36 348.717 132.36C351.517 132.36 353.717 133.053 355.317 134.44C356.943 135.827 357.877 137.667 358.117 139.96H351.797C351.69 139.187 351.343 138.573 350.757 138.12C350.197 137.667 349.45 137.44 348.517 137.44C347.717 137.44 347.103 137.6 346.677 137.92C346.25 138.213 346.037 138.627 346.037 139.16C346.037 139.8 346.37 140.28 347.037 140.6C347.73 140.92 348.797 141.24 350.237 141.56C351.89 141.987 353.237 142.413 354.277 142.84C355.317 143.24 356.223 143.907 356.997 144.84C357.797 145.747 358.21 146.973 358.237 148.52C358.237 149.827 357.863 151 357.117 152.04C356.397 153.053 355.343 153.853 353.957 154.44C352.597 155.027 351.01 155.32 349.197 155.32Z" fill="#EE3F5D"/>
<path d="M232.425 132.4V138.08H241.585V143.36H232.425V149.52H242.785V155H225.585V126.92H242.785V132.4H232.425ZM257.266 148.6L262.106 132.68H269.386L261.466 155H253.026L245.106 132.68H252.426L257.266 148.6ZM293.305 143.48C293.305 144.12 293.265 144.787 293.185 145.48H277.705C277.812 146.867 278.252 147.933 279.025 148.68C279.825 149.4 280.798 149.76 281.945 149.76C283.652 149.76 284.838 149.04 285.505 147.6H292.785C292.412 149.067 291.732 150.387 290.745 151.56C289.785 152.733 288.572 153.653 287.105 154.32C285.638 154.987 283.998 155.32 282.185 155.32C279.998 155.32 278.052 154.853 276.345 153.92C274.638 152.987 273.305 151.653 272.345 149.92C271.385 148.187 270.905 146.16 270.905 143.84C270.905 141.52 271.372 139.493 272.305 137.76C273.265 136.027 274.598 134.693 276.305 133.76C278.012 132.827 279.972 132.36 282.185 132.36C284.345 132.36 286.265 132.813 287.945 133.72C289.625 134.627 290.932 135.92 291.865 137.6C292.825 139.28 293.305 141.24 293.305 143.48ZM286.305 141.68C286.305 140.507 285.905 139.573 285.105 138.88C284.305 138.187 283.305 137.84 282.105 137.84C280.958 137.84 279.985 138.173 279.185 138.84C278.412 139.507 277.932 140.453 277.745 141.68H286.305ZM310.514 132.44C313.127 132.44 315.207 133.293 316.754 135C318.327 136.68 319.114 139 319.114 141.96V155H312.314V142.88C312.314 141.387 311.927 140.227 311.154 139.4C310.38 138.573 309.34 138.16 308.034 138.16C306.727 138.16 305.687 138.573 304.914 139.4C304.14 140.227 303.754 141.387 303.754 142.88V155H296.914V132.68H303.754V135.64C304.447 134.653 305.38 133.88 306.554 133.32C307.727 132.733 309.047 132.44 310.514 132.44ZM336.307 149.2V155H332.827C330.347 155 328.413 154.4 327.027 153.2C325.64 151.973 324.947 149.987 324.947 147.24V138.36H322.227V132.68H324.947V127.24H331.787V132.68H336.267V138.36H331.787V147.32C331.787 147.987 331.947 148.467 332.267 148.76C332.587 149.053 333.12 149.2 333.867 149.2H336.307ZM349.197 155.32C347.25 155.32 345.517 154.987 343.997 154.32C342.477 153.653 341.277 152.747 340.397 151.6C339.517 150.427 339.023 149.12 338.917 147.68H345.677C345.757 148.453 346.117 149.08 346.757 149.56C347.397 150.04 348.183 150.28 349.117 150.28C349.97 150.28 350.623 150.12 351.077 149.8C351.557 149.453 351.797 149.013 351.797 148.48C351.797 147.84 351.463 147.373 350.797 147.08C350.13 146.76 349.05 146.413 347.557 146.04C345.957 145.667 344.623 145.28 343.557 144.88C342.49 144.453 341.57 143.8 340.797 142.92C340.023 142.013 339.637 140.8 339.637 139.28C339.637 138 339.983 136.84 340.677 135.8C341.397 134.733 342.437 133.893 343.797 133.28C345.183 132.667 346.823 132.36 348.717 132.36C351.517 132.36 353.717 133.053 355.317 134.44C356.943 135.827 357.877 137.667 358.117 139.96H351.797C351.69 139.187 351.343 138.573 350.757 138.12C350.197 137.667 349.45 137.44 348.517 137.44C347.717 137.44 347.103 137.6 346.677 137.92C346.25 138.213 346.037 138.627 346.037 139.16C346.037 139.8 346.37 140.28 347.037 140.6C347.73 140.92 348.797 141.24 350.237 141.56C351.89 141.987 353.237 142.413 354.277 142.84C355.317 143.24 356.223 143.907 356.997 144.84C357.797 145.747 358.21 146.973 358.237 148.52C358.237 149.827 357.863 151 357.117 152.04C356.397 153.053 355.343 153.853 353.957 154.44C352.597 155.027 351.01 155.32 349.197 155.32Z" fill="#FFA918"/>
<mask id="mask0_121_26" style="mask-type:luminance" maskUnits="userSpaceOnUse" x="114" y="0" width="132" height="105">
<path d="M246 0H114V105H246V0Z" fill="white"/>
</mask>
<g mask="url(#mask0_121_26)">
<path d="M122.866 0H170.149V105H122.866C120.514 105 118.259 103.894 116.597 101.924C114.934 99.955 114 97.2847 114 94.5V10.5C114 7.71523 114.934 5.04451 116.597 3.07538C118.259 1.10624 120.514 0 122.866 0Z" fill="#FFA918"/>
<path d="M180 0H227.284C229.635 0 231.89 1.10624 233.553 3.07538C235.215 5.04451 236.149 7.71523 236.149 10.5V94.5C236.149 97.2847 235.215 99.955 233.553 101.924C231.89 103.894 229.635 105 227.284 105H180V0Z" fill="#F97315"/>
</g>
</svg>
